<svg id="Layer_1" data-name="Layer 1" xmlns="http://www.w3.org/2000/svg" viewBox="0 0 2376.26 2164.11"><defs><style>.cls-1{fill:#fff;}</style></defs><path class="cls-1" d="M2369.59,538.7c-114-210.86-344.81-346-586.12-346a671.66,671.66,0,0,0-227.59,39.86,75.29,75.29,0,0,0,51.21,141.6c0-.05,0-.05,0-.05,37.59-12.91,99.81-.74,137.44,10.35,45.4,13.44,77.66,35.79,98.25,63.71,20.74,27.94,31.23,62.84,32.82,100.93,1.36,32.34-3.61,67.14-14,102.23-40.07,135.44-151.34,239.92-297.2,313.72-158.22,80-355.24,123.63-549.6,132.31a5.34,5.34,0,0,1-5.57-4.33,401.13,401.13,0,0,1,38.2-268.46c52.4-99.24,150.07-185.51,295.74-235.74a.53.53,0,0,1,.14-.06l19.52-6.23,99-30.92a5.4,5.4,0,0,0,2.57-8.63l-65.9-80.17C1255.21,288.41,1052.5,202.48,849,192.23a827.64,827.64,0,0,0-287.35,36.4C469.4,257.54,383.14,303,309.57,363.48a674.33,674.33,0,0,0-59.47,55.15,4.21,4.21,0,0,1-.54.5,75.26,75.26,0,0,0-12.1,12.1l-.05,0-5.92,7.7c-.07.1-.14.17-.21.26C111.4,576.06,71,742.4,77.18,922.36c10.11,290.32,82.51,539,239.72,760.25,170.65,240.25,439.87,445.14,837,633.25a.66.66,0,0,1,.28.09l83.93,34a74.7,74.7,0,0,0,39,4.54,2,2,0,0,1,.54-.05,75,75,0,0,0,23.9-5.28l72.18-29.22.28-.14c397.09-188.06,666.58-393.18,837.49-633.67,113.23-159.25,182.51-332.68,216.35-525.42C2465.45,945.76,2471.16,726.62,2369.59,538.7ZM287.85,698.21c6-60.34,27.53-119.16,61.86-165.64a3.34,3.34,0,0,1,.35-.4,508.22,508.22,0,0,1,55-52.47c58.09-47.72,127-83.87,201.4-107.15A678.52,678.52,0,0,1,842,342.64c127.75,6.41,254.77,49.52,358.68,134.23a5.43,5.43,0,0,1-1,9.08c-134.06,66-228.69,161.05-285.4,268.41a550.11,550.11,0,0,0-58.3,335.75,5.26,5.26,0,0,1-1.38,4.42,5.14,5.14,0,0,1-4.31,1.73c-107-6.13-223.82-24.11-324.44-62.72C436,999,359.87,947.81,319.47,873.23,291.5,821.6,281.7,759.43,287.85,698.21Zm1738.52,668c-231.15,218.3-544,367.22-721.58,394.17a75.45,75.45,0,1,0,22.37,149.23c200.35-30.33,549.18-194.45,802.43-433.66q23.44-22,45.73-45a5.44,5.44,0,0,1,8.8,6.13,1090.58,1090.58,0,0,1-95.35,161.78C1933.36,1817.44,1683,2006.58,1310.82,2183a3.27,3.27,0,0,0-.32.19l-39.6,16a5.58,5.58,0,0,1-4.1,0l-49.36-20c-.1,0-.19-.09-.28-.13-372.27-176.43-622.42-365.27-777.5-583.71C321.54,1429,257.57,1243.5,235.35,1031a5.46,5.46,0,0,1,9.46-4.24C304.45,1092.38,383.88,1140,472.15,1174c150.47,57.83,327.76,75.36,470.18,75.4,239.18.17,490.95-49.12,690-149.81,181.2-91.63,320.84-226.19,373.92-405.75,14.84-50.32,21.81-101.51,19.8-150.62q-.76-18.46-3.28-36.55a5.44,5.44,0,0,1,10.36-3c22.23,50.77,35.33,100,40.48,147.44,13.25,120-23.5,232.27-89.46,332.09-69.32,104.74-170.52,196.37-281.33,270-163.79,108.86-345.78,177.6-477.48,192a75.36,75.36,0,1,0,15.89,149.87c153.25-16.88,361.28-94.26,544.82-216.27,126.4-84,242.58-189.81,323.7-312.48,84.4-127.63,131.07-273.07,113.7-431.25-1.31-12.14-3-24.36-5.1-36.62a5.42,5.42,0,0,1,10-3.75C2395.76,868.13,2250.45,1154.54,2026.37,1366.22Z" transform="translate(-76.58 -191.2)"/><path class="cls-1" d="M787.62,613.81a94.13,94.13,0,1,0-94.06-94.14A94.1,94.1,0,0,0,787.62,613.81Z" transform="translate(-76.58 -191.2)"/></svg>