<?xml version="1.0" encoding="utf-8"?>
<!-- Generator: Adobe Illustrator 25.4.1, SVG Export Plug-In . SVG Version: 6.00 Build 0)  -->
<svg version="1.1" id="圖層_1" xmlns="http://www.w3.org/2000/svg" xmlns:xlink="http://www.w3.org/1999/xlink" x="0px" y="0px"
	 viewBox="0 0 128 128" style="enable-background:new 0 0 128 128;" xml:space="preserve">
<style type="text/css">
	.st0{fill:#FFFFFF;}
</style>
<g>
	<path class="st0" d="M116.5,69.6c-2.8-2.8-7.2-3.3-10.6-1.2L79.7,85.3L53.1,72.2c-8.3-4.1-18.1-4.3-26.6-0.6L9.8,78.9
		c-0.6,0.3-1,0.9-1,1.6v30c0,1,0.8,1.7,1.7,1.8c0.4,0,0.7-0.1,1-0.3l6.2-4.2c7.4-5.1,16.9-6.1,25.2-2.8l21.1,8.3
		c5.2,2.1,11.2,1.2,15.6-2.3l36.1-28.8c3.6-2.9,4.2-8.2,1.3-11.9C116.9,70,116.7,69.8,116.5,69.6z M113.6,79.4l-36.1,28.8
		c-3.4,2.7-8.1,3.4-12.2,1.8l-21.1-8.3c-9.4-3.7-20.1-2.5-28.5,3.2l-3.5,2.4V81.6l15.6-6.8c7.6-3.3,16.2-3.1,23.6,0.5l26.7,13.1
		c2.1,1.1,3,3.6,2,5.8c-0.9,1.9-3.1,2.8-5.2,2.2l-24.4-7.7c-0.9-0.3-1.9,0.2-2.2,1.1c-0.3,0.9,0.2,1.9,1.1,2.2L74,99.8
		c4.1,1.3,8.5-1,9.8-5.1c0.8-2.4,0.3-5.1-1.2-7.1l25.3-16.3c2.3-1.5,5.3-0.8,6.8,1.5C116,75,115.5,77.8,113.6,79.4L113.6,79.4z"/>
	<path class="st0" d="M77.2,74c0.6,0.3,1.2,0.3,1.8,0c31-18.4,32.6-36,31.9-42.7c-0.7-7.7-5.8-14.2-13.1-16.7
		c-6.8-2.2-14-0.4-19.7,4.9c-5.6-5.3-12.9-7.1-19.7-4.9c-7.3,2.5-12.4,9-13.1,16.7C44.6,38,46.2,55.6,77.2,74z M48.8,31.7
		c0.5-6.3,4.7-11.7,10.7-13.8c1.5-0.5,3.1-0.8,4.7-0.8c4.9,0.1,9.4,2.3,12.6,6c0.7,0.7,1.8,0.7,2.5,0c0,0,0,0,0,0
		c4.8-5.2,11.3-7.2,17.3-5.2c6,2.1,10.2,7.5,10.7,13.8c0.6,6-0.9,21.6-29.3,38.8C49.7,53.3,48.1,37.7,48.8,31.7z"/>
</g>
</svg>
