<?xml version="1.0" encoding="utf-8"?>
<!-- Generator: Adobe Illustrator 25.4.1, SVG Export Plug-In . SVG Version: 6.00 Build 0)  -->
<svg version="1.1" id="圖層_1" xmlns="http://www.w3.org/2000/svg" xmlns:xlink="http://www.w3.org/1999/xlink" x="0px" y="0px"
	 viewBox="0 0 128 128" style="enable-background:new 0 0 128 128;" xml:space="preserve">
<style type="text/css">
	.st0{fill:#FFFFFF;}
</style>
<g>
	<path class="st0" d="M95.6,26h-3.1v-3.1c0-5.5-4.5-9.9-9.9-9.9H32.4c-5.5,0-9.9,4.4-9.9,9.9v69.1c0,5.5,4.4,9.9,9.9,9.9h3.1v3.1
		c0,5.5,4.5,9.9,9.9,9.9h32.2h0c0.5,0,1-0.2,1.4-0.6l26-26c0,0,0,0,0,0c0.1-0.1,0.2-0.2,0.3-0.4c0,0,0-0.1,0.1-0.1
		c0.1-0.1,0.1-0.3,0.2-0.4c0,0,0,0,0-0.1c0-0.1,0-0.2,0-0.3V35.9C105.5,30.5,101.1,26,95.6,26z M35.5,35.9v62.2h-3.1
		c-3.4,0-6.1-2.7-6.1-6.1V22.9c0-3.4,2.7-6.1,6.1-6.1h50.2c3.4,0,6.1,2.7,6.1,6.1V26H45.4C39.9,26,35.5,30.4,35.5,35.9z M79.5,108.4
		V95.1c0-3.4,2.7-6.1,6.1-6.1H99L79.5,108.4z M101.7,85.2H85.6c-5.5,0-9.9,4.4-9.9,9.9v16.1H45.4c-3.4,0-6.1-2.7-6.1-6.1V35.9
		c0-3.4,2.7-6.1,6.1-6.1h50.2c3.4,0,6.1,2.7,6.1,6.1V85.2z"/>
	<path class="st0" d="M88.9,44.1H52.1c-1.1,0-1.9,0.9-1.9,1.9s0.9,1.9,1.9,1.9h36.8c1.1,0,1.9-0.9,1.9-1.9S89.9,44.1,88.9,44.1z"/>
	<path class="st0" d="M88.9,60.4H52.1c-1.1,0-1.9,0.9-1.9,1.9c0,1.1,0.9,1.9,1.9,1.9h36.8c1.1,0,1.9-0.9,1.9-1.9
		C90.8,61.2,89.9,60.4,88.9,60.4z"/>
	<path class="st0" d="M88.9,76.7H52.1c-1.1,0-1.9,0.9-1.9,1.9c0,1.1,0.9,1.9,1.9,1.9h36.8c1.1,0,1.9-0.9,1.9-1.9
		C90.8,77.5,89.9,76.7,88.9,76.7z"/>
	<path class="st0" d="M65.9,93H52.1c-1.1,0-1.9,0.9-1.9,1.9s0.9,1.9,1.9,1.9h13.8c1.1,0,1.9-0.9,1.9-1.9S67,93,65.9,93z"/>
</g>
</svg>
