<svg id="圖層_1" data-name="圖層 1" xmlns="http://www.w3.org/2000/svg" xmlns:xlink="http://www.w3.org/1999/xlink" viewBox="0 0 631.67 137.76"><defs><style>.cls-1{opacity:0.25;fill:url(#未命名漸層_47);}.cls-2{opacity:0.5;fill:url(#未命名漸層_47-2);}.cls-3{fill:url(#未命名漸層_47-3);}.cls-4{fill:#040000;}.cls-5{fill:#fff;}</style><linearGradient id="未命名漸層_47" x1="12.98" y1="74.05" x2="139.88" y2="74.05" gradientTransform="translate(-13.19 -0.84) rotate(-0.77)" gradientUnits="userSpaceOnUse"><stop offset="0" stop-color="#e7413d"/><stop offset="0.27" stop-color="#e74440"/><stop offset="0.49" stop-color="#e84e4a"/><stop offset="0.69" stop-color="#ea5e5c"/><stop offset="0.88" stop-color="#ed7574"/><stop offset="1" stop-color="#ef8787"/></linearGradient><linearGradient id="未命名漸層_47-2" x1="30.42" y1="70.16" x2="173.66" y2="70.16" xlink:href="#未命名漸層_47"/><linearGradient id="未命名漸層_47-3" x1="50.78" y1="70.49" x2="193.66" y2="70.49" xlink:href="#未命名漸層_47"/></defs><polygon class="cls-1" points="127.31 44.65 108.01 42.54 106.42 27.65 0 15 11.61 130.92 113.24 91.36 110.06 61.66 127.31 44.65"/><polygon class="cls-2" points="160.98 36.88 139.21 34.49 137.41 17.69 17.29 3.42 30.4 134.26 145.11 89.61 141.52 56.07 160.98 36.88"/><polygon class="cls-3" points="181.01 38.62 165.97 27.97 164.08 15.03 37.6 0 51.4 137.76 172.18 90.75 169.26 58.71 181.01 38.62"/><polygon class="cls-4" points="146.58 36.74 134.88 36.2 121.22 60 98.08 34.48 75.86 33.45 81.88 93.47 105.5 87.53 103.08 63.31 118.53 78.33 126.72 76.57 130.17 69.86 135.78 58.95 137.96 79.38 150.64 76.19 146.58 36.74"/><path class="cls-5" d="M314.3,34v69.72H300.85v-38q0-4.55.26-10.32l.26-5.21.26-5.16h-.42L299.6,49.9l-1.55,4.85q-2.19,6.54-3.38,9.65L279.1,103.73H266.85l-15.73-39q-1.29-3.22-3.43-9.66l-1.6-4.85-1.61-4.8h-.42l.26,5.06.26,5.11q.31,5.91.31,10.16v38H231.45V34h21.9L266,66.29c.86,2.25,2,5.47,3.42,9.66L271,80.8l1.61,4.8h.47l1.5-4.8,1.56-4.8q1.92-6.09,3.32-9.61L291.92,34Z"/><path class="cls-5" d="M348.19,54.34q14.38,0,18.84,4.52t4.47,19.08q0,16.23-4.36,21.3t-18.38,5.05q-15.21,0-19.7-4.7t-4.49-20.68q0-15.37,4.42-20T348.19,54.34Zm-.1,9.24q-7.43,0-9.45,2.63t-2,12.29q0,11,1.92,13.79t9.6,2.76q7.42,0,9.37-2.91t1.95-14q0-9.35-2-12T348.09,63.58Z"/><path class="cls-5" d="M422.79,54.9l-14.23,48.83H390L375,54.9h12.61l6.54,22.53q1.35,4.69,2.5,9.09l1.19,4.54,1.19,4.55h.26l1.09-4.55,1.09-4.49c.83-3.4,1.61-6.44,2.34-9.09L410,54.9Z"/><path class="cls-5" d="M440,34v9.75H428.13V34Zm0,20.89v48.83H428.13V54.9Z"/><path class="cls-5" d="M451.7,54.9h11.78L463,63.12l.25.05q3.48-8.82,15.58-8.83,17.59,0,17.6,16.14v33.25H484.56V72.47l-.26-3.42q-.84-5.46-8.72-5.47-12,0-12,11.19v29H451.7Z"/><path class="cls-5" d="M520.22,34V46.22q0,12.15-10.69,12.15c-.39,0-1.11,0-2.18-.1V52.81c3.8,0,5.71-1.57,5.71-4.7L513,46.58h-4.67V34Z"/><path class="cls-5" d="M553.7,54.34q14.38,0,18.84,4.52T577,77.94q0,16.23-4.36,21.3t-18.38,5.05q-15.21,0-19.7-4.7t-4.49-20.68q0-15.37,4.42-20T553.7,54.34Zm-.1,9.24q-7.43,0-9.45,2.63t-2,12.29q0,11,1.92,13.79t9.6,2.76q7.43,0,9.37-2.91t2-14q0-9.35-2-12T553.6,63.58Z"/><path class="cls-5" d="M586.92,54.9h11.79l-.47,8.22.26.05q3.48-8.82,15.57-8.83,17.59,0,17.6,16.14v33.25H619.78V72.47l-.26-3.42q-.82-5.46-8.72-5.47-12,0-12,11.19v29H586.92Z"/></svg>