<?xml version="1.0" encoding="utf-8"?>
<!-- Generator: Adobe Illustrator 25.4.1, SVG Export Plug-In . SVG Version: 6.00 Build 0)  -->
<svg version="1.1" id="圖層_1" xmlns="http://www.w3.org/2000/svg" xmlns:xlink="http://www.w3.org/1999/xlink" x="0px" y="0px"
	 viewBox="0 0 128 128" style="enable-background:new 0 0 128 128;" xml:space="preserve">
<style type="text/css">
	.st0{fill:#FFFFFF;}
</style>
<g>
	<path class="st0" d="M98.7,17.2H29.3c-6.7,0-12.1,5.4-12.1,12.1v69.3c0,6.7,5.4,12.1,12.1,12.1h69.3c6.7,0,12.1-5.4,12.1-12.1V29.3
		C110.7,22.7,105.3,17.3,98.7,17.2z M107.2,98.7c0,4.7-3.8,8.6-8.6,8.6H29.3c-4.7,0-8.6-3.8-8.6-8.6V88L39,67.2
		c2.1-2.4,5.7-2.6,8-0.5c0.2,0.2,0.4,0.3,0.5,0.5L62.3,84c3.3,3.8,9.2,4.2,13,0.9c0.3-0.3,0.6-0.6,0.9-0.9l6.1-7
		c2.1-2.4,5.7-2.6,8.1-0.5c0.2,0.2,0.4,0.3,0.5,0.5l16.4,18.7V98.7z M107.2,90.3L93.5,74.7c-3.4-3.8-9.2-4.2-13-0.8
		c-0.3,0.3-0.6,0.5-0.8,0.8l-6.1,7c-2.1,2.4-5.7,2.6-8,0.5c-0.2-0.2-0.4-0.3-0.5-0.5L50.2,64.9c-3.3-3.8-9.2-4.2-13-0.9
		c-0.3,0.3-0.6,0.6-0.9,0.9L20.8,82.7V29.3c0-4.7,3.8-8.6,8.6-8.6h69.3c4.7,0,8.6,3.8,8.6,8.6V90.3z"/>
	<path class="st0" d="M75.7,33.8c-5.9,0-10.6,4.8-10.6,10.6S69.8,55,75.7,55s10.6-4.8,10.6-10.6c0,0,0,0,0,0
		C86.3,38.5,81.5,33.8,75.7,33.8z M75.7,51.5c-3.9,0-7.1-3.2-7.1-7.1s3.2-7.1,7.1-7.1s7.1,3.2,7.1,7.1c0,0,0,0,0,0
		C82.8,48.3,79.6,51.5,75.7,51.5z"/>
</g>
</svg>
