<svg xmlns="http://www.w3.org/2000/svg" width="128" height="128" viewBox="0 0 128 128">
  <title>PROFILE</title>
  <path d="M64.008,17.25a46.411,46.411,0,0,0-33.052,13.7,46.887,46.887,0,0,0-6.023,58.771,48.28,48.28,0,0,0,6.022,7.337c1.01,1.009,2.016,1.93,2.965,2.714l0,0,.022.02a42.766,42.766,0,0,0,4.355,3.272,46.9,46.9,0,0,0,55.717-3.24,39.787,39.787,0,0,0,3.046-2.768A46.752,46.752,0,0,0,64.008,17.25ZM40.225,100.141a39.9,39.9,0,0,1-3.252-2.405A27.435,27.435,0,0,1,83.4,83.047a27.082,27.082,0,0,1,7.616,14.7A43.4,43.4,0,0,1,40.225,100.141Zm6.35-45.985A17.4,17.4,0,0,1,64,36.812a17.36,17.36,0,0,1,16.29,23.521,17.436,17.436,0,0,1-33.71-6.177ZM94.587,94.58c-.187.187-.362.345-.545.521A30.954,30.954,0,0,0,73.149,72.888a20.96,20.96,0,0,0,10.405-11.3A20.9,20.9,0,0,0,64,33.312,20.819,20.819,0,0,0,54.885,72.9,31.047,31.047,0,0,0,33.952,95.08c-.175-.169-.346-.324-.522-.5a44.786,44.786,0,0,1-5.58-6.8,43.373,43.373,0,0,1,5.581-54.362A43.245,43.245,0,0,1,94.587,94.58Z"/>
</svg>
