<?xml version="1.0" encoding="utf-8"?>
<!-- Generator: Adobe Illustrator 25.4.1, SVG Export Plug-In . SVG Version: 6.00 Build 0)  -->
<svg version="1.1" id="圖層_1" xmlns="http://www.w3.org/2000/svg" xmlns:xlink="http://www.w3.org/1999/xlink" x="0px" y="0px"
	 viewBox="0 0 128 128" style="enable-background:new 0 0 128 128;" xml:space="preserve">
<style type="text/css">
	.st0{fill:#FFFFFF;}
</style>
<g>
	<path class="st0" d="M108,10.5H85.8v-0.2c0-2.6-2.1-4.7-4.7-4.7H46.9c-2.6,0-4.7,2.1-4.7,4.7v0.2H20c-3.7,0-6.7,3-6.7,6.7v98.5
		c0,3.7,3,6.7,6.7,6.7h88c3.7,0,6.7-3,6.7-6.7V17.2C114.7,13.5,111.7,10.5,108,10.5z M46.9,28.9h34.2c2.6,0,4.7-2.1,4.7-4.7v-0.2
		h14.2c0.7,0,1.2,0.5,1.2,1.2v82.7c0,0.7-0.5,1.2-1.2,1.2H27.9c-0.7,0-1.2-0.6-1.2-1.2V25.1c0-0.7,0.5-1.2,1.2-1.2h14.3v0.2
		C42.2,26.8,44.3,28.9,46.9,28.9z M45.7,10.3c0-0.7,0.5-1.2,1.2-1.2h34.2c0.7,0,1.2,0.5,1.2,1.2v13.9c0,0.7-0.5,1.2-1.2,1.2H46.9
		c-0.7,0-1.2-0.5-1.2-1.2V10.3z M111.2,115.7c0,1.8-1.4,3.2-3.2,3.2H20c-1.8,0-3.2-1.4-3.2-3.2V17.2c0-1.8,1.4-3.2,3.2-3.2h22.2v6.4
		H27.9c-2.6,0-4.7,2.1-4.7,4.7v82.7c0,2.6,2.1,4.7,4.7,4.7h72.1c2.6,0,4.7-2.1,4.7-4.7V25.1c0-2.6-2.1-4.7-4.7-4.7H85.8V14H108
		c1.8,0,3.2,1.4,3.2,3.2V115.7z"/>
	<path class="st0" d="M50.6,67.8h26.7c1,0,1.8-0.8,1.8-1.8s-0.8-1.8-1.8-1.8H50.6c-1,0-1.8,0.8-1.8,1.8S49.7,67.8,50.6,67.8z"/>
	<path class="st0" d="M37.6,77.9c0,1,0.8,1.8,1.8,1.8h49.3c1,0,1.8-0.8,1.8-1.8s-0.8-1.8-1.8-1.8H39.4
		C38.4,76.2,37.6,76.9,37.6,77.9z"/>
	<path class="st0" d="M88.6,88H39.4c-1,0-1.8,0.8-1.8,1.8s0.8,1.8,1.8,1.8h49.3c1,0,1.8-0.8,1.8-1.8S89.6,88,88.6,88z"/>
	<path class="st0" d="M88.6,99.9H39.4c-1,0-1.8,0.8-1.8,1.8s0.8,1.8,1.8,1.8h49.3c1,0,1.8-0.8,1.8-1.8S89.6,99.9,88.6,99.9z"/>
	<path class="st0" d="M54.5,47.5h7.8v7.8c0,1,0.8,1.8,1.8,1.8s1.8-0.8,1.8-1.8v-7.8h7.8c1,0,1.8-0.8,1.8-1.8S74.5,44,73.5,44h-7.8
		v-7.8c0-1-0.8-1.8-1.8-1.8s-1.8,0.8-1.8,1.8V44h-7.8c-1,0-1.8,0.8-1.8,1.8S53.5,47.5,54.5,47.5z"/>
</g>
</svg>
